<svg width="107" height="21" viewBox="0 0 107 21" fill="none" xmlns="http://www.w3.org/2000/svg">
<path d="M14.872 20V13.76H14.716L12.09 19.74H6.734V2.606L9.048 2.476V2.32H0.65V2.476L2.964 2.606V19.714L0.65 19.844V20H14.872ZM26.6049 20H31.0509V19.844L28.9449 19.714V6.688L23.6669 6.792V6.948L25.7729 7.052V17.01C25.0969 18.752 23.5109 19.766 22.3929 19.766C21.1709 19.766 20.4689 18.908 20.4689 16.906V6.688L15.1909 6.792V6.948L17.2969 7.052V15.528C17.2969 18.622 18.6749 20.26 21.4569 20.26C23.3549 20.26 25.0189 19.142 25.8509 17.504L26.6049 20ZM39.1525 2.32H32.9905V2.476L35.3305 2.606L34.3685 17.764L32.2105 19.844V20H38.1385V19.844L34.6285 17.738L35.5905 2.762L41.7785 20.26H41.9345L48.2265 3.022L49.2665 19.714L46.8485 19.844V20H55.3505V19.844L53.1405 19.714L52.0485 2.606L54.3885 2.476V2.32H48.2265L43.6245 14.852L39.1525 2.32ZM70.1787 13.344C70.1787 9.08 67.0847 6.428 63.6267 6.428C60.1167 6.428 57.0487 9.08 57.0487 13.344C57.0487 17.66 60.1167 20.26 63.6267 20.26C67.0847 20.26 70.1787 17.66 70.1787 13.344ZM66.6687 13.344C66.6687 18.856 65.8887 20.026 63.6267 20.026C61.3387 20.026 60.5587 18.856 60.5587 13.344C60.5587 7.832 61.3387 6.662 63.6267 6.662C65.8887 6.662 66.6687 7.832 66.6687 13.344ZM80.3166 6.844L82.4226 8.56L79.0686 17.972L75.1426 6.974L77.6646 6.844V6.688H70.3586V6.844L71.8146 6.974L76.4686 20H78.6266L82.7086 8.586L84.6846 6.844V6.688H80.3166V6.844ZM90.6825 2.58C90.6825 1.54 89.8505 0.76 88.8365 0.76C87.7965 0.76 86.9645 1.54 86.9645 2.58C86.9645 3.75 87.8225 4.478 88.8365 4.478C89.8505 4.478 90.6825 3.75 90.6825 2.58ZM92.6325 20V19.844L90.5265 19.714V6.688L85.2485 6.792V6.948L87.3545 7.052V19.714L85.2485 19.844V20H92.6325ZM106.106 16.854L105.872 16.75C104.988 18.934 103.298 19.922 101.27 19.922C98.5402 19.922 97.6042 18.492 97.5782 13.188H106.34C106.028 9.132 103.48 6.428 100.256 6.428C96.9802 6.428 94.0682 9.236 94.0682 13.344C94.0682 17.452 96.8762 20.26 100.75 20.26C103.376 20.26 105.17 19.22 106.106 16.854ZM100.256 6.662C102.076 6.662 102.856 7.806 102.882 12.928H97.5782C97.5782 8.274 98.1762 6.662 100.256 6.662Z" fill="white"/>
</svg>
