<svg width="42" height="42" viewBox="0 0 42 42" fill="none" xmlns="http://www.w3.org/2000/svg">
<path d="M36.89 15.0151V26.985C36.89 28.945 35.84 30.7651 34.1425 31.7626L23.7475 37.7651C22.05 38.7451 19.95 38.7451 18.235 37.7651L7.84004 31.7626C6.14254 30.7826 5.09253 28.9625 5.09253 26.985V15.0151C5.09253 13.0551 6.14254 11.235 7.84004 10.2375L18.235 4.235C19.9325 3.255 22.0325 3.255 23.7475 4.235L34.1425 10.2375C35.84 11.235 36.89 13.0376 36.89 15.0151Z" fill="#E2FCFC"/>
<path d="M17.0625 21.0001V18.9001C17.0625 16.2051 18.97 15.1026 21.2975 16.4501L23.1175 17.5001L24.9375 18.55C27.265 19.8975 27.265 22.1026 24.9375 23.4501L23.1175 24.5001L21.2975 25.55C18.97 26.8975 17.0625 25.7951 17.0625 23.1001V21.0001Z" fill="black"/>
</svg>
