<svg width="156" height="42" viewBox="0 0 156 42" fill="none" xmlns="http://www.w3.org/2000/svg">
<path d="M36.89 15.0151V26.985C36.89 28.945 35.84 30.7651 34.1425 31.7626L23.7475 37.7651C22.05 38.7451 19.95 38.7451 18.235 37.7651L7.84004 31.7626C6.14254 30.7826 5.09253 28.9625 5.09253 26.985V15.0151C5.09253 13.0551 6.14254 11.235 7.84004 10.2375L18.235 4.235C19.9325 3.255 22.0325 3.255 23.7475 4.235L34.1425 10.2375C35.84 11.235 36.89 13.0376 36.89 15.0151Z" fill="#E2FCFC"/>
<path d="M17.0625 21.0001V18.9001C17.0625 16.2051 18.97 15.1026 21.2975 16.4501L23.1175 17.5001L24.9375 18.55C27.265 19.8975 27.265 22.1026 24.9375 23.4501L23.1175 24.5001L21.2975 25.55C18.97 26.8975 17.0625 25.7951 17.0625 23.1001V21.0001Z" fill="black"/>
<path d="M62.872 30V23.76H62.716L60.09 29.74H54.734V12.606L57.048 12.476V12.32H48.65V12.476L50.964 12.606V29.714L48.65 29.844V30H62.872ZM74.6049 30H79.0509V29.844L76.9449 29.714V16.688L71.6669 16.792V16.948L73.7729 17.052V27.01C73.0969 28.752 71.5109 29.766 70.3929 29.766C69.1709 29.766 68.4689 28.908 68.4689 26.906V16.688L63.1909 16.792V16.948L65.2969 17.052V25.528C65.2969 28.622 66.6749 30.26 69.4569 30.26C71.3549 30.26 73.0189 29.142 73.8509 27.504L74.6049 30ZM87.1525 12.32H80.9905V12.476L83.3305 12.606L82.3685 27.764L80.2105 29.844V30H86.1385V29.844L82.6285 27.738L83.5905 12.762L89.7785 30.26H89.9345L96.2265 13.022L97.2665 29.714L94.8485 29.844V30H103.351V29.844L101.141 29.714L100.049 12.606L102.389 12.476V12.32H96.2265L91.6245 24.852L87.1525 12.32ZM118.179 23.344C118.179 19.08 115.085 16.428 111.627 16.428C108.117 16.428 105.049 19.08 105.049 23.344C105.049 27.66 108.117 30.26 111.627 30.26C115.085 30.26 118.179 27.66 118.179 23.344ZM114.669 23.344C114.669 28.856 113.889 30.026 111.627 30.026C109.339 30.026 108.559 28.856 108.559 23.344C108.559 17.832 109.339 16.662 111.627 16.662C113.889 16.662 114.669 17.832 114.669 23.344ZM128.317 16.844L130.423 18.56L127.069 27.972L123.143 16.974L125.665 16.844V16.688H118.359V16.844L119.815 16.974L124.469 30H126.627L130.709 18.586L132.685 16.844V16.688H128.317V16.844ZM138.683 12.58C138.683 11.54 137.851 10.76 136.837 10.76C135.797 10.76 134.965 11.54 134.965 12.58C134.965 13.75 135.823 14.478 136.837 14.478C137.851 14.478 138.683 13.75 138.683 12.58ZM140.633 30V29.844L138.527 29.714V16.688L133.249 16.792V16.948L135.355 17.052V29.714L133.249 29.844V30H140.633ZM154.106 26.854L153.872 26.75C152.988 28.934 151.298 29.922 149.27 29.922C146.54 29.922 145.604 28.492 145.578 23.188H154.34C154.028 19.132 151.48 16.428 148.256 16.428C144.98 16.428 142.068 19.236 142.068 23.344C142.068 27.452 144.876 30.26 148.75 30.26C151.376 30.26 153.17 29.22 154.106 26.854ZM148.256 16.662C150.076 16.662 150.856 17.806 150.882 22.928H145.578C145.578 18.274 146.176 16.662 148.256 16.662Z" fill="white"/>
</svg>
